<?xml version="1.0" encoding="UTF-8"?>
<svg id="Capa_8" data-name="Capa 8" xmlns="http://www.w3.org/2000/svg" viewBox="0 0 1920 1080">
  <defs>
    <style>
      .cls-1 {
        fill: #3a9742;
      }

      .cls-1, .cls-2 {
        stroke-width: 0px;
      }

      .cls-3, .cls-4 {
        stroke-width: 1.27px;
      }

      .cls-3, .cls-4, .cls-5, .cls-6, .cls-7, .cls-8, .cls-9, .cls-10 {
        stroke-miterlimit: 10;
      }

      .cls-3, .cls-5, .cls-7, .cls-8, .cls-10 {
        fill: none;
      }

      .cls-3, .cls-7, .cls-8 {
        stroke: #3a9742;
      }

      .cls-4, .cls-5, .cls-6, .cls-9, .cls-10 {
        stroke: #307fb6;
      }

      .cls-4, .cls-9 {
        fill: #211915;
      }

      .cls-2, .cls-6 {
        fill: #307fb6;
      }

      .cls-5, .cls-7, .cls-9 {
        stroke-width: 3.8px;
      }

      .cls-6, .cls-8, .cls-10 {
        stroke-width: 5.06px;
      }
    </style>
  </defs>
  <path class="cls-2" d="M2220.52,1313.41s-741.92-642.24-741.92-642.24c0,0,3.13-1.62,3.13-1.62,0,0,110.82,1129.55,110.82,1129.55,0,0,.46,4.7.46,4.7,0,0-3.95-2.6-3.95-2.6.91-1.06-596.34-389.95-588.55-387.99,0,0-921.62,248.84-921.62,248.84,0,0-.99-3.67-.99-3.67.2-.05,922.07-249.68,922.42-249.78-.08.98,591.01,387.93,591.23,388.83,0,0-3.49,2.11-3.49,2.11s-110.1-1129.62-110.1-1129.62c0,0-.46-4.76-.46-4.76,0,0,3.6,3.14,3.6,3.14,0,0,739.43,645.1,739.43,645.1h0Z"/>
  <path class="cls-1" d="M-372.55,1063.9c-.11.04,668.17,477.96,666.26,477.35.05-.03,899.63-462.47,899.71-462.51.3.03,993.25,406.58,993.54,406.63,0,0-993.71-405.59-993.71-405.59,2.03-.45-899.55,462.3-899.12,462.28-.49.55-666.2-478.13-666.68-478.17h0Z"/>
  <polyline class="cls-5" points="-305.68 1481.05 361.13 881.46 476.93 1298.68 378.38 1498.25 658.03 1502.53"/>
  <polyline class="cls-8" points="-332.4 1382.81 342.44 1185.97 588.48 1390.25 1289.89 1604.3 1478.11 664.47 2186.95 1485.37"/>
  <polyline class="cls-3" points="109.49 1032.51 391.27 819.11 721.47 1186.43 1947.6 902.57 2331.82 1105.48"/>
  <path class="cls-1" d="M90.56,633.07c-56.14,85.47-169.82,257.08-226.1,342.43-4.09-2.33,497.21-93.72,496.56-94.67.28-.25,832.28,198.03,832.56,197.94,0,0,4.42,1.05,4.42,1.05,0,0-4.54.04-4.54.04.03-.05-999.07,7.9-998.63,7.77,0,0-214.71,229.08-214.71,229.08,0-.01,214.54-229.29,214.55-229.3.45.67,1000.77-10.42,998.65-7.57,0-.02-833.18-197.88-832.08-197.76,0,0-497.19,93.68-497.19,93.68s-1.43.27-1.43.27c0,0,.81-1.21.81-1.21,56.71-85.14,170.36-256.69,227.13-341.75h0Z"/>
  <polyline class="cls-10" points="38.95 1358.88 547.27 992.65 1945.12 1519.99 2240.66 878.6"/>
  <polyline class="cls-8" points="2310.63 523.18 1653.45 1209.09 80.62 1328.86"/>
  <polyline class="cls-7" points="990.53 1411.03 1430.84 900.51 1044.99 998.17 722.71 877.72 629.35 1083.95"/>
  <polyline class="cls-10" points="-136.06 1321.32 563.83 1761.27 1478.11 664.47 2062.66 781.99 2309 702.61"/>
  <polyline class="cls-7" points="194.72 1087.53 -277.23 786.72 90.56 633.07 157.95 1068.71"/>
  <line class="cls-4" x1="56.66" y1="1155.75" x2="-18.87" y2="951.39"/>
  <polyline class="cls-5" points="-122.83 1243.32 90.56 633.07 367.23 882.1 554.09 993.37"/>
  <line class="cls-9" x1="-473.01" y1="677.8" x2="114.33" y2="770.51"/>
  <line class="cls-9" x1="292.25" y1="894.97" x2="109.51" y2="770.51"/>
  <circle class="cls-6" cx="158.45" cy="1063.9" r="4.84"/>
  <circle class="cls-6" cx="109.49" cy="1032.51" r="4.84"/>
  <circle class="cls-6" cx="89.78" cy="634.84" r="6.04"/>
  <circle class="cls-6" cx="10.91" cy="755.48" r="4.84"/>
  <circle class="cls-6" cx="47.8" cy="761.05" r="6.56"/>
  <circle class="cls-6" cx="109.51" cy="770" r="4.84"/>
  <circle class="cls-6" cx="469.67" cy="906.86" r="4.84"/>
  <circle class="cls-6" cx="363.26" cy="880.76" r="5.68"/>
  <circle class="cls-6" cx="292.25" cy="894.97" r="4.84"/>
  <circle class="cls-6" cx="787.21" cy="1081.45" r="8.21"/>
  <circle class="cls-6" cx="549.28" cy="992.86" r="4.84"/>
  <circle class="cls-6" cx="654.73" cy="1032.51" r="4.84"/>
  <circle class="cls-6" cx="687.13" cy="957.42" r="4.84"/>
  <circle class="cls-6" cx="629.44" cy="1083.09" r="4.84"/>
  <circle class="cls-6" cx="1190.3" cy="1079.93" r="7.37"/>
  <circle class="cls-6" cx="1142.5" cy="1066.97" r="4.84"/>
  <circle class="cls-6" cx="1405.41" cy="1027.21" r="4.84"/>
  <circle class="cls-6" cx="1299.73" cy="1052.02" r="4.84"/>
  <circle class="cls-6" cx="1241.04" cy="947.91" r="4.84"/>
  <circle class="cls-6" cx="1727.11" cy="955" r="8.21"/>
  <circle class="cls-6" cx="1789.71" cy="938.46" r="8.21"/>
  <circle class="cls-6" cx="1808" cy="1047.05" r="8.21"/>
  <circle class="cls-6" cx="1430.84" cy="900.51" r="4.84"/>
  <circle class="cls-6" cx="1513.61" cy="1003.34" r="4.84"/>
  <circle class="cls-6" cx="1857.24" cy="995.99" r="4.84"/>
  <circle class="cls-6" cx="1480.15" cy="667.24" r="10.56"/>
  <path class="cls-6" d="M428.47,1086.71c-.6,5.71-5.72,9.85-11.43,9.25-5.71-.6-9.85-5.72-9.25-11.43.6-5.71,5.72-9.85,11.43-9.25,5.71.6,9.85,5.72,9.25,11.43Z"/>
</svg>