<?xml version="1.0" encoding="UTF-8"?>
<svg id="Capa_8" data-name="Capa 8" xmlns="http://www.w3.org/2000/svg" viewBox="0 0 1920 1080">
  <defs>
    <style>
      .cls-1 {
        fill: #3a9742;
      }

      .cls-1, .cls-2 {
        stroke-width: 0px;
      }

      .cls-3, .cls-4, .cls-5, .cls-6, .cls-7, .cls-8 {
        stroke-miterlimit: 10;
      }

      .cls-3, .cls-2 {
        fill: #307fb6;
      }

      .cls-3, .cls-6, .cls-8 {
        stroke-width: 3.01px;
      }

      .cls-3, .cls-7, .cls-8 {
        stroke: #307fb6;
      }

      .cls-4, .cls-5, .cls-6 {
        stroke: #3a9742;
      }

      .cls-4, .cls-5, .cls-6, .cls-7, .cls-8 {
        fill: none;
      }

      .cls-4, .cls-7 {
        stroke-width: 2.26px;
      }

      .cls-5 {
        stroke-width: .75px;
      }
    </style>
  </defs>
  <path class="cls-2" d="M451.32,1335.91c.98-.13,49.12-586.82,53.51-580.64-3.74,2.99-505.17,445.7-508.57,448.47,0,0-.12-2.74-.12-2.74.65.37-19.17-423.45-17.62-419.15,2.23-.72-447.7-358.48-439.54-359.78.16.12,441.33,358.05,441.53,358.21-.48.29,18.59,420.21,18.25,420.6,0,0-2.17-.93-2.17-.93,3.46-3.14,505.7-445.4,508.89-448.26,0,0-.26,2.83-.26,2.83,0,0-53.9,581.38-53.9,581.38h0Z"/>
  <path class="cls-1" d="M-330.94-2.25c-.06-.04,1.95,488.81,1.58,487.68.03.01,536.33,273.13,536.38,273.15.09.15,149.56,620.83,149.64,620.99,0,0-150.2-620.71-150.2-620.71.92.82-536.23-273.15-536.07-272.95-.44-.04-1.18-487.92-1.33-488.16h0Z"/>
  <polyline class="cls-7" points="-508.96 175.24 12.49 288.28 -148.53 489.41 -279.13 511.32 -183.85 647.76"/>
  <polyline class="cls-6" points="-470.86 128.14 -140.96 385.27 -153.89 575.11 -13.01 988.09 506.03 751.75 356.66 1379.57"/>
  <polyline class="cls-5" points="-147.99 219.44 53.07 281.13 -9.23 568.33 554.57 1061.19 590.41 1317.24"/>
  <path class="cls-1" d="M38.16,71.25c.06-.01-245.62,10.9-243.71,9.47,0,0,218.3,207.29,218.3,207.29.21.02,194.16,470.58,194.31,470.66,0,0,1.03,2.5,1.03,2.5-.65-.82-352.16-480.21-352.98-481.37,0,0-185.29-23.86-185.29-23.86l185.31,23.71s351.87,478.94,351.89,478.96c-.96,2.42-194.68-471.15-194.79-470.04-1.15-.21-217.94-207.62-218.91-207.91.58-.39,244.13-9.11,244.84-9.4h0Z"/>
  <polyline class="cls-8" points="-330.04 299.01 23.64 416.82 255.76 1274.93 668.15 1194.27"/>
  <polyline class="cls-6" points="864.02 1104.31 304.26 1025.95 -301.05 308.67"/>
  <polyline class="cls-4" points="-23.96 776.35 375.67 811.11 194.23 658.91 140.17 461.47 8.15 488.21"/>
  <polyline class="cls-8" points="-372.84 201.48 -341.5 692.37 506.03 751.75 652.81 1074.74 776.86 1165.98"/>
  <circle class="cls-3" cx="100.85" cy="705.82" r="2.88"/>
  <polyline class="cls-4" points="-144.88 279.72 -164.01 -52.74 38.16 71.25 -148.6 255.42"/>
  <polyline class="cls-7" points="-330.6 180.72 38.16 71.25 14.31 291.46 25.66 420.36"/>
  <circle class="cls-3" cx="37.04" cy="71.49" r="3.6"/>
  <circle class="cls-3" cx="38.02" cy="349.51" r="2.88"/>
  <circle class="cls-3" cx="13.57" cy="289.07" r="3.38"/>
  <circle class="cls-3" cx="64.31" cy="563.51" r="4.88"/>
  <circle class="cls-3" cx="24.23" cy="417.86" r="2.88"/>
  <circle class="cls-3" cx="41.81" cy="482.54" r="2.88"/>
  <circle class="cls-3" cx="89.32" cy="472.04" r="2.88"/>
  <circle class="cls-3" cx="8.6" cy="487.95" r="2.88"/>
  <circle class="cls-3" cx="205.36" cy="757.49" r="4.38"/>
  <circle class="cls-3" cx="157.88" cy="910.8" r="4.88"/>
  <circle class="cls-3" cx="194.97" cy="729.92" r="2.88"/>
  <circle class="cls-3" cx="133.65" cy="823.58" r="2.88"/>
  <circle class="cls-3" cx="305.68" cy="842.95" r="2.88"/>
  <circle class="cls-3" cx="256.92" cy="800.59" r="2.88"/>
  <circle class="cls-3" cx="286.73" cy="736.02" r="2.88"/>
  <circle class="cls-3" cx="124.81" cy="788.64" r="8.44"/>
  <circle class="cls-3" cx="257.84" cy="970.82" r="4.88"/>
  <circle class="cls-3" cx="452.51" cy="973.05" r="4.88"/>
  <circle class="cls-3" cx="482.29" cy="997.5" r="4.88"/>
  <circle class="cls-3" cx="436.25" cy="1044.12" r="4.88"/>
  <circle class="cls-3" cx="375.67" cy="811.11" r="2.88"/>
  <circle class="cls-3" cx="193.43" cy="893.79" r="2.88"/>
  <circle class="cls-3" cx="354.87" cy="886.85" r="2.88"/>
  <circle class="cls-3" cx="553.87" cy="1060.29" r="4.02"/>
  <circle class="cls-3" cx="478.03" cy="1050.11" r="2.88"/>
  <circle class="cls-3" cx="652.8" cy="1074.76" r="4.85"/>
  <circle class="cls-3" cx="505.41" cy="753.7" r="6.29"/>
</svg>