<?xml version="1.0" encoding="UTF-8"?>
<svg id="Capa_8" data-name="Capa 8" xmlns="http://www.w3.org/2000/svg" viewBox="0 0 1920 1080">
  <defs>
    <style>
      .cls-1 {
        fill: #3a9742;
      }

      .cls-1, .cls-2 {
        stroke-width: 0px;
      }

      .cls-3, .cls-4, .cls-5, .cls-6, .cls-7, .cls-8, .cls-9, .cls-10 {
        stroke-miterlimit: 10;
      }

      .cls-3, .cls-4, .cls-7, .cls-9, .cls-10 {
        fill: none;
      }

      .cls-3, .cls-4, .cls-8 {
        stroke-width: 2.2px;
      }

      .cls-3, .cls-5, .cls-6, .cls-8, .cls-10 {
        stroke: #307fb6;
      }

      .cls-2, .cls-6 {
        fill: #307fb6;
      }

      .cls-4, .cls-7, .cls-9 {
        stroke: #3a9742;
      }

      .cls-5, .cls-8 {
        fill: #211915;
      }

      .cls-5, .cls-9 {
        stroke-width: .73px;
      }

      .cls-6, .cls-7, .cls-10 {
        stroke-width: 2.93px;
      }
    </style>
  </defs>
  <circle class="cls-6" cx="1912.75" cy="148.11" r="4.75"/>
  <path class="cls-2" d="M1209.02-604.72c-.94.21,5.09,572.6.28,567.02,3.35-3.23,449.15-476.89,452.19-479.87,0,0,.36,2.64.36,2.64-.66-.3,56.56,408.29,54.67,404.27-1.45,1.32,465.16,306.6,457.88,308.93-.17-.11-459.46-307.09-459.67-307.23.44-.32-55.7-405.21-55.41-405.62,0,0,2.19.7,2.19.7-3.07,3.35-449.69,476.64-452.52,479.7,0,0,0-2.76,0-2.76l.02-567.77h0Z"/>
  <path class="cls-1" d="M2086.53,620.79s-45.64-472.97-45.27-472.11c-.03-.01-543.82-216.32-543.87-216.34-.09-.13-200.56-587.7-200.63-587.83,0,0,201.1,587.54,201.1,587.54-.86-.63,543.72,216.39,543.56,216.22.35,0,44.97,472.33,45.11,472.51h0Z"/>
  <polyline class="cls-3" points="2242.97 432.96 1727.92 370.29 1865.79 161.1 1990.28 128.16 1885.78 4.61"/>
  <polyline class="cls-7" points="2210.31 481.98 1867.8 262.61 1863.28 77.63 1689.82 -309.6 1208.46 -34.19 1296.76 -655.49"/>
  <polyline class="cls-9" points="1889.49 422.55 1689.27 380.86 1723.83 97.18 1133.69 -329.46 1076.02 -574.16"/>
  <path class="cls-1" d="M1722.54,582.74c-.06.02,236.85-32.59,235.13-31.03,0,0-229.97-181.13-229.97-181.13-.21,0-230.23-438.22-230.37-438.29,0,0-1.22-2.33-1.22-2.33.69.73,384.08,433.38,384.97,434.42,0,0,181.55,6.48,181.55,6.48l-181.55-6.33s-383.68-432.18-383.7-432.19c.71-2.43,230.78,438.73,230.78,437.65,1.13.1,229.65,181.47,230.62,181.67-.53.43-235.57,30.72-236.23,31.07h0Z"/>
  <polyline class="cls-3" points="1723.83 97.18 1863.28 77.63 2062.62 370.86"/>
  <polyline class="cls-10" points="2058.63 329.17 1705.6 246.84 1403.84 -563.22 1011.78 -448.12"/>
  <polyline class="cls-7" points="830.19 -343.44 1379.22 -317.8 2029.68 322.42"/>
  <polyline class="cls-4" points="1719.42 -105.56 1329.35 -103.36 1518.7 27.73 1588.76 214.06 1714.19 176.32"/>
  <line class="cls-3" x1="2069.77" y1="443.66" x2="1881.06" y2="364.46"/>
  <polyline class="cls-10" points="2108.81 419.76 2034.43 -52.74 1208.46 -34.19 1037.35 -333.76 909.05 -410.98"/>
  <circle class="cls-6" cx="1863.31" cy="77.68" r="2.8"/>
  <circle class="cls-6" cx="1723.69" cy="21.99" r="3.5"/>
  <circle class="cls-6" cx="1865.79" cy="161.1" r="2.8"/>
  <circle class="cls-6" cx="1884.69" cy="4.53" r="3.58"/>
  <circle class="cls-6" cx="1921.32" cy="297.22" r="2.8"/>
  <polyline class="cls-4" points="1881.06 364.46 1929.42 684.66 1722.54 582.74 1886.85 387.65"/>
  <line class="cls-5" x1="1963.32" y1="398.71" x2="1902.95" y2="509.37"/>
  <polyline class="cls-3" points="2069.77 443.66 1722.54 582.74 1725.88 367.38 1703.32 243.59"/>
  <line class="cls-8" x1="1956.4" y1="811.44" x2="1773.42" y2="520.1"/>
  <line class="cls-8" x1="1760.01" y1="395.18" x2="1775.25" y2="522.2"/>
  <circle class="cls-6" cx="1881.06" cy="364.46" r="2.8"/>
  <circle class="cls-6" cx="1884.56" cy="389.26" r="2.8"/>
  <circle class="cls-6" cx="1889.49" cy="422.55" r="2.8"/>
  <circle class="cls-6" cx="1723.6" cy="582.4" r="3.5"/>
  <circle class="cls-6" cx="1806.2" cy="570.9" r="2.8"/>
  <circle class="cls-6" cx="1794.6" cy="552.71" r="3.8"/>
  <circle class="cls-6" cx="1775.03" cy="522.39" r="2.8"/>
  <circle class="cls-6" cx="1697.71" cy="313.3" r="2.8"/>
  <circle class="cls-6" cx="1903.28" cy="509.08" r="3.43"/>
  <circle class="cls-6" cx="1726.8" cy="369.63" r="3.28"/>
  <circle class="cls-6" cx="1760.01" cy="395.18" r="2.8"/>
  <circle class="cls-6" cx="1909.94" cy="556.59" r="2.8"/>
  <circle class="cls-6" cx="1722.1" cy="98.39" r="4.75"/>
  <circle class="cls-6" cx="1653.06" cy="108.44" r="4.75"/>
  <circle class="cls-6" cx="1704.93" cy="245.88" r="2.8"/>
  <circle class="cls-6" cx="1682.1" cy="184.82" r="2.8"/>
  <circle class="cls-6" cx="1637.04" cy="199.26" r="2.8"/>
  <circle class="cls-6" cx="1713.78" cy="176.61" r="2.8"/>
  <circle class="cls-6" cx="1789.33" cy="88.01" r="4.75"/>
  <path class="cls-6" d="M1791.8,262.86c2.72-1.91,6.47-1.25,8.38,1.47,1.91,2.72,1.25,6.47-1.47,8.38-2.72,1.91-6.47,1.25-8.38-1.47s-1.25-6.47,1.47-8.38Z"/>
</svg>